# xmcd
#
# Track frame offsets: 
#        150
#        21493
#        32020
#        46752
#        59107
#        76855
#        88080
#        104818
#        117863
#        135333
#        151014
#        163037
#        171947
#        177512
#        188022
#        197289
#        215999
#        237927
#
# Disc length: 3210 seconds
#
# Revision: 0
# Processed by: cddbd v1.5.2PL0 Copyright (c) Steve Scherf et al.
# Submitted via: ExactAudioCopy v1.0b3
#
DISCID=f50c8812
DTITLE=Clarence 'Gatemouth' Brown - Bogalusa Boogie Man
DYEAR=1975
DGENRE=Blues
TTITLE0=Bogalusa Boogie Man
TTITLE1=Mama Mambo
TTITLE2=Monroe, Louisiana
TTITLE3=Aztec Flower
TTITLE4=Hurricane
TTITLE5=Bayou Stomp
TTITLE6=Dixie Chicken
TTITLE7=On My Way Back Home
TTITLE8=Amos Moses
TTITLE9=Fiddlin' Around
TTITLE10=Birmingham
TTITLE11=After The Band Is Gone
TTITLE12=Don't Get Around Much Anymore
TTITLE13=Flyin' Home
TTITLE14=Caldonia
TTITLE15=Someday
TTITLE16=Okie Dokie Stomp
TTITLE17=clarence-booklet
EXTD=
EXTT0=
EXTT1=
EXTT2=
EXTT3=
EXTT4=
EXTT5=
EXTT6=
EXTT7=
EXTT8=
EXTT9=
EXTT10=
EXTT11=
EXTT12=
EXTT13=
EXTT14=
EXTT15=
EXTT16=
EXTT17=
PLAYORDER=
